<?xml version="1.0" encoding="utf-8"?>
<!-- Generator: Adobe Illustrator 24.0.3, SVG Export Plug-In . SVG Version: 6.00 Build 0)  -->
<svg version="1.1" id="Layer_1" xmlns="http://www.w3.org/2000/svg" xmlns:xlink="http://www.w3.org/1999/xlink" x="0px" y="0px"
	 viewBox="0 0 1024 1024" style="enable-background:new 0 0 1024 1024;" xml:space="preserve">
<style type="text/css">
	.st0{
	fill:#FFFFFF;
	border-radius:50%;
	}
</style>
<g>
	<rect class="st0" width="100%" height="100%" rx="17.5%"/>
	<path d="M509.2,885.7c-206.2,0-376.5-170-374.4-377.5c2-204.8,161.7-373.2,376-372.8c208.5,0.4,376.5,162,374.4,378.9
		C882.9,731.3,710.1,883.6,509.2,885.7z M307.8,529.7c0.4,49.1,5.1,89.3,16.2,128.5c23.1,81.5,65.8,149.4,138.6,196
		c22.5,14.4,45.4,20.3,72.8,18.2c101.1-7.9,185.6-48.3,251.6-125.1c71.2-82.9,99.8-179.6,84.9-287.8c-12-87.4-52-161-117.9-219.9
		c-66.4-59.3-144.2-90.1-233.3-90.6c-9.9,0-21.6,4.4-29.4,10.6c-17.7,14-34.5,29.4-50,45.8C352.9,298.5,310.9,410.5,307.8,529.7z"/>
	<path class="st0" d="M307.8,529.7c3.1-119.2,45.1-231.1,133.5-324.3c15.5-16.4,32.3-31.8,50-45.8c7.8-6.2,19.5-10.6,29.4-10.6
		c89.1,0.4,166.9,31.3,233.3,90.6C820,298.5,859.9,372.1,872,459.5c14.9,108.2-13.6,204.9-84.9,287.8
		c-66,76.8-150.5,117.1-251.6,125.1c-27.4,2.1-50.4-3.8-72.8-18.2c-72.8-46.6-115.5-114.5-138.6-196
		C312.9,619,308.2,578.8,307.8,529.7z"/>
</g>
</svg>
